<?xml version="1.0" encoding="UTF-8" standalone="no"?>
<svg xmlns="http://www.w3.org/2000/svg" xml:space="preserve" height="400" viewBox="0 0 600 400" width="600" version="1.1">
<rect fill="#fff" height="400" width="600" y="0" x="0"/>
<g style="stroke:#000;stroke-linecap:round;stroke-miterlimit:10;stroke-width:1.495;fill:none">
<path d="m25.88 128.1h109.6v-71.77h-109.6z"/> <path d="m289 128.1h109.7v-71.77h-109.7z"/> <path d="m289 236.1h109.7v-71.8h-109.7z"/> <path d="m289 343.4h109.7v-71.8h-109.7z"/> <path d="m464.5 236.1h109.6v-71.8h-109.6z"/> <path d="m113.6 236.1h109.6v-71.8h-109.6z"/> <path d="m113.6 343.4h109.6v-71.8h-109.6z"/> <path d="m223.2 199.9h65.79"/> <path d="m223.2 307.5h65.79"/><path d="m398.7 199.9h65.79"/><path d="m168.4 271.6v-35.5"/><path d="m343.9 271.6v-35.5"/><path d="m343.9 164.3v-35.6"/><path d="m80.7 163.7v-35.6"/><path d="m223.2 271.6 65.79-35.59"/><path d="m223.2 236.1 65.79 35.59"/><path d="m113.6 199.9c-18.17 0-32.9-15.93-32.9-35.59"/>
</g>
<path d="m529.3 343.4v-31.9c0-0.5582 0.4386-0.9968 0.9968-0.9968s0.9968 0.4386 0.9968 0.9968v31.9c0 0.5582-0.4386 0.9968-0.9968 0.9968s-0.9968-0.4386-0.9968-0.9968z"/><path d="m519.5 322.8 10.73-12.88 10.73 12.88c0.3588 0.4187 0.299 1.057-0.1196 1.396-0.4187 0.3588-1.057 0.299-1.396-0.1196l-9.968-11.96h1.515l-9.968 11.96c-0.3389 0.4187-0.9769 0.4785-1.396 0.1196-0.4186-0.3389-0.4785-0.9769-0.1196-1.396z"/>
<g style="font-size:16.03px;font-family:Courier;fill:#000000">
<text y="82.789436" x="32.075592">Encima del</text>
<text y="102.78947" x="58.075592">árbol</text>
<text y="117.45924" x="116.89418">8</text>
<text y="225.39371" x="204.50571">7</text>
<text y="332.80984" x="204.50571">6</text>
<text y="117.45924" x="380.10355">5</text>
<text y="225.39371" x="380.10355">4</text>
<text y="332.80984" x="380.10355">3</text>
<text y="225.39371" x="555.50201">2</text>
<text y="76.789436" x="304.07559">Pabellón</text>
<text y="94.789436" x="332.07559">de</text>
<text y="112.78944" x="314.07559">música</text>
<text y="186.78943" x="134.07559">Al lado</text>
<text y="206.78946" x="126.07559">del árbol</text>
<text y="186.78943" x="318.07559">Cerca</text>
<text y="204.78943" x="330.07559">del</text>
<text y="222.78943" x="320.07559">árbol</text>
<text y="186.78943" x="486.07559">Parada</text>
<text y="204.78943" x="506.07556">de</text>
<text y="222.78943" x="480.07559">autobús</text>
<text y="304.78946" x="132.07559">Estanque</text>
<text y="304.78946" x="314.07559">Jardín</text>
<text y="300.78946" x="506.07556">Norte</text>
</g>
</svg>
