<?xml version="1.0" encoding="UTF-8" standalone="no"?>
<svg xmlns="http://www.w3.org/2000/svg" xml:space="preserve" height="400" viewBox="0 0 600 400" width="600" version="1.1">
<rect fill="#fff" height="400" width="600" y="0" x="0"/>
<g style="stroke-linejoin:round;stroke:#000;stroke-linecap:round;stroke-miterlimit:10;stroke-width:1.39;fill:none">
<path d="m36.19 194.6h527.6v-144.3h-527.6z"/><path d="m36.19 349.7h122.6v-299.4h-122.6z"/>
<path d="m36.19 311h122.6"/><path d="m36.19 276.9h122.6"/><path d="m233.3 50.28v144.3"/><path d="m318.1 50.28v144.3"/><path d="m402.9 50.28v144.3"/><path d="m487.8 50.28v144.3"/><path style="stroke-dasharray:4.17058722, 5.56078295" d="m36.19 238h122.6"/>
<path style="stroke-dasharray:4.17058722, 5.56078295" d="m36.19 81.42h122.6"/><path d="m163.1 343.4 6.273-5.772v-59.23l5.283-4.906-5.283-4.906v-59.23l-6.273-5.772"/>
</g>
<g style="font-size:14.9px;font-family:Courier;fill:#000000">
<text y="192.02522" x="138.10274">0</text>
<text y="192.02522" x="216.45418">1</text>
<text y="192.02522" x="301.20053">3</text>
<text y="192.02522" x="386.20636">4</text>
<text y="192.02522" x="470.9527">6</text>
<text y="192.02522" x="545.52277">7</text>
<text y="126.85286" x="173.61072">Libre</text>
<text y="126.85286" x="251.61073">Libre</text>
<text y="126.85286" x="337.61072">Libre</text>
<text y="126.85286" x="421.61072">Libre</text>
<text y="126.85286" x="73.61071">Libre</text>
<text y="262.85284" x="39.610722">Base de datos</text>
<text y="334.85284" x="65.610725">Sistema</text>
<text y="300.85284" x="81.610725">PAW</text>
<text y="64.852859" x="57.610722">«Overlay»</text>
<text y="76.852859" x="65.610725">de 48 k</text>
<text y="107.31978" x="499.47839">«Over-</text>
<text y="126.85286" x="494.20996">lay» de</text>
<text y="151.91902" x="503.01147">128 k</text>
<text y="276.85284" x="181.61072">16 k</text>
</g>
</svg>
